#!OML:ASF F:\VICON\USERDATA\INSTALL\rory3\rory3.ASF
:FULLY-SPECIFIED
:DEGREES
186
root 0.908146 18.1908 4.0962 -4.80331 -0.695192 -0.352282
lowerback 14.0735 -1.05039 -1.03849
upperback -0.926067 -1.27143 3.4246
thorax -8.81873 -0.472732 4.55036
lowerneck -10.915 -0.312315 -1.90076
upperneck 27.9409 0.640832 -2.43238
head 10.7862 -0.202521 -0.471042
rclavicle 1.9953e-014 -1.90833e-014
rhumerus -40.8297 -15.0309 -72.2499
rradius 24.2502
rwrist 6.23843
rhand -13.74 9.66842
rfingers 7.12502
rthumb 12.3798 -19.945
lclavicle 1.9953e-014 -1.90833e-014
lhumerus -38.9441 4.07441 86.3263
lradius 40.3098
lwrist 5.95949
lhand -13.5535 50.2999
lfingers 7.12502
lthumb 12.5596 79.9024
rfemur -15.6793 6.4272 23.3064
rtibia 20.9831
rfoot 0.178687 -8.42691
rtoes 18.1104
lfemur 8.10364 -6.79092 -23.9739
ltibia 40.1586
lfoot 16.9381 -5.97265
ltoes -12.6718
187
root 0.886135 18.213 4.26165 -4.67431 -0.81031 -0.96046
lowerback 13.9197 -1.09647 -0.481905
upperback -0.970779 -1.22585 3.57865
thorax -8.79194 -0.47315 4.38552
lowerneck -11.1358 -0.280732 -1.83377
upperneck 28.2283 0.68795 -2.44201
head 10.9389 -0.181112 -0.483118
rclavicle 1.23309e-014 -7.95139e-015
rhumerus -40.6754 -15.3785 -72.045
rradius 23.7454
rwrist 6.74314
rhand -13.8432 10.0484
rfingers 7.12502
rthumb 12.2803 -19.5711
lclavicle 1.23309e-014 -7.95139e-015
lhumerus -39.0633 4.19742 86.3137
lradius 40.0969
lwrist 6.09228
lhand -13.6134 50.0886
lfingers 7.12502
lthumb 12.5019 79.6947
rfemur -15.1713 5.8104 24.1489
rtibia 20.9593
rfoot -0.510788 -7.55062
rtoes 18.5198
lfemur 6.69189 -6.63174 -23.0618
ltibia 42.1629
lfoot 19.1936 -6.57487
ltoes -13.9004
188
root 0.870086 18.2383 4.42856 -4.56767 -0.852317 -1.31354
lowerback 13.8788 -1.10802 -0.121521
upperback -1.06651 -1.16891 3.68787
thorax -8.88272 -0.457271 4.28845
lowerneck -11.2912 -0.250618 -1.71333
upperneck 28.3651 0.74597 -2.55921
head 11.0229 -0.158928 -0.540597
rclavicle 1.87603e-015 1.43125e-014
rhumerus -40.5726 -15.1069 -72.1085
rradius 23.521
rwrist 6.48143
rhand -14.1396 9.8935
rfingers 7.12502
rthumb 11.9945 -19.7428
lclavicle 1.87603e-015 1.43125e-014
lhumerus -39.1417 4.25135 86.4449
lradius 39.7491
lwrist 6.10773
lhand -13.7597 49.7066
lfingers 7.12502
lthumb 12.3608 79.3212
rfemur -14.5237 4.94303 24.6579
rtibia 20.6547
rfoot -0.826405 -6.61805
rtoes 20.0629
lfemur 5.14021 -6.57167 -22.5275
ltibia 44.3976
lfoot 21.3547 -6.87564
ltoes -12.2667
189
root 0.855172 18.2564 4.60294 -4.58819 -0.860451 -1.41873
lowerback 13.8257 -1.05026 -0.0229088
upperback -1.08139 -1.06952 3.75999
thorax -8.87659 -0.412009 4.2881
lowerneck -10.9021 -0.358963 -1.71934
upperneck 27.8969 0.592838 -2.64755
head 10.7677 -0.229923 -0.585245
rclavicle -1.3418e-014 -3.97569e-014
rhumerus -40.5185 -14.7439 -72.1794
rradius 23.5831
rwrist 5.89783
rhand -14.4056 9.52742
rfingers 7.12502
rthumb 11.738 -20.1237
lclavicle -1.3418e-014 -3.97569e-014
lhumerus -39.2111 4.30396 86.691
lradius 39.505
lwrist 5.93523
lhand -13.5944 49.9075
lfingers 7.12502
lthumb 12.5202 79.5124
rfemur -13.7425 4.05516 24.887
rtibia 20.4638
rfoot -1.09274 -5.61061
rtoes 20.7615
lfemur 3.83003 -6.54899 -22.364
ltibia 46.586
lfoot 23.1162 -6.87522
ltoes -10.6775
190
root 0.829917 18.2616 4.74508 -4.58483 -1.03244 -2.06094
lowerback 14.069 -0.986499 0.437288
upperback -1.08915 -0.87989 3.9847
thorax -9.04308 -0.333604 4.23925
lowerneck -11.3668 -0.331338 -2.05803
upperneck 28.1893 0.619097 -2.23929
head 10.9692 -0.211831 -0.379786
rclavicle 1.51201e-014 5.56597e-015
rhumerus -40.3519 -15.0298 -71.8967
rradius 23.4374
rwrist 6.51359
rhand -14.0898 9.88052
rfingers 7.12502
rthumb 12.0425 -19.753
lclavicle 1.51201e-014 5.56597e-015
lhumerus -39.2077 4.35322 86.8142
lradius 39.3847
lwrist 5.7379
lhand -13.0682 50.6402
lfingers 7.12502
lthumb 13.0275 80.2134
rfemur -13.1484 3.89496 25.7511
rtibia 20.391
rfoot -1.29367 -5.11659
rtoes 20.6427
lfemur 2.30082 -6.28685 -21.4223
ltibia 48.8719
lfoot 24.283 -6.81151
ltoes -11.4854
191
root 0.808915 18.2655 4.89186 -4.65751 -1.25203 -2.55173
lowerback 14.2182 -0.877313 0.829159
upperback -1.08249 -0.649951 4.12219
thorax -9.141 -0.236711 4.12085
lowerneck -11.4461 -0.379777 -2.10653
upperneck 28.3207 0.521129 -2.07642
head 11.0338 -0.243928 -0.325781
rclavicle 1.58531e-014 -5.08889e-014
rhumerus -40.2375 -15.3279 -71.6223
rradius 23.2464
rwrist 7.25026
rhand -13.6442 10.2904
rfingers 7.12502
rthumb 12.4722 -19.3174
lclavicle 1.58531e-014 -5.08889e-014
lhumerus -39.3064 4.19743 86.9756
lradius 39.2264
lwrist 5.58017
lhand -12.7766 51.0118
lfingers 7.12502
lthumb 13.3085 80.5668
rfemur -12.5083 3.88384 26.4329
rtibia 20.3907
rfoot -1.61656 -4.64042
rtoes 20.4941
lfemur 0.870539 -5.91541 -20.6901
ltibia 51.1117
lfoot 24.744 -6.41383
ltoes -13.1283
192
root 0.790467 18.2746 5.04288 -4.71604 -1.33964 -2.68471
lowerback 14.313 -0.799299 0.937315
upperback -1.10239 -0.522956 4.12244
thorax -9.22648 -0.17963 4.03559
lowerneck -11.3736 -0.404808 -1.92049
upperneck 28.3001 0.457681 -2.14051
head 11.0109 -0.259691 -0.388709
rclavicle -2.33696e-014 2.70347e-014
rhumerus -39.9957 -15.567 -71.533
rradius 22.9699
rwrist 7.66575
rhand -13.5529 10.4425
rfingers 7.12502
rthumb 12.5602 -19.16
lclavicle -2.33696e-014 2.70347e-014
lhumerus -39.5453 3.93449 87.144
lradius 39.215
lwrist 5.59351
lhand -12.8511 50.7044
lfingers 7.12502
lthumb 13.2367 80.2641
rfemur -11.815 3.96143 26.6855
rtibia 20.2509
rfoot -2.02131 -4.30941
rtoes 20.7947
lfemur -0.592302 -5.63586 -20.4058
ltibia 53.2907
lfoot 24.4506 -5.79012
ltoes -13.8519
